<svg enable-background="new 0 0 456 456" height="456" viewBox="0 0 456 456" width="456" xmlns="http://www.w3.org/2000/svg"><path d="m0 0h456v456h-456z" fill="none"/><g fill="#fff"><path d="m123.3 232 8.3 5.4-19.7 30.5c-2.8 4.3-5.3 7.4-9 8.8-3.5 1.3-7.4.8-11.1-1.6-4.6-3-7.6-7.9-8.2-14.3l9.6-1.7c.6 3.5 1.4 6.2 3.7 7.7 1.9 1.2 3.7.1 5.7-3z"/><path d="m132.3 252.8 8.7 4.2-16.6 34.7-8.7-4.2zm14.4-5c-1 3.9-5.2 5.7-8.6 4-3.2-1.5-4.2-5.5-2.7-8.7 1.4-2.9 4.9-4 7.9-2.7 2.8 1.3 4.2 4.5 3.4 7.4z"/><path d="m148 260.6 9.2 2.9-6 19.1c-2.1 6.6-1.1 10.7 3.8 12.2s8-1.2 9.9-7.4l6.2-19.6 9.2 2.9-5.3 16.9c-2.1 6.8-4.1 11.6-9.3 14.7-3.9 2.3-8.2 2.5-13.3.9-8.8-2.8-12.9-9-11.6-18 .5-3.1 1.1-4.8 2.1-7.9z"/><path d="m222.3 261.6 9.9.2-.8 36.3c-.1 5.1-.6 9.1-3 12.3-2.3 3-5.9 4.6-10.2 4.5-5.5-.1-10.6-2.8-14.5-7.8l7.2-6.5c2.3 2.7 4.5 4.6 7.2 4.6 2.2 0 3.2-1.8 3.3-5.6z"/><path d="m250.5 262.8c1.1 4.1-2 8-6.2 7.9-1.7-.1-3.2-1-4.2-2.3-3.7-4.5-.8-9.5 3.6-10.2 3-.4 5.9 1.6 6.8 4.6zm-9.7 11.7 9.6-1.1 4.2 38.2-9.6 1.1z"/><path d="m256.7 258.1 9.4-1.9 2.9 13.8 5.6-1.2 1.7 8.1-5.6 1.2 6.1 29.6-9.4 1.9-6.1-29.6-4.8 1-1.7-8.1 4.8-1z"/><path d="m293 286c-6.8-1-11-3.6-12.5-8.2-1.9-5.7 1.3-12.1 8.3-14.5 4.7-1.6 9.8-.9 14 2l-3.7 7.6c-2.7-1.4-5.2-2-7.4-1.2-1.9.6-3 1.9-2.6 3.3.5 1.4 2 1.6 4.3 1.9l3.9.6c7.1 1.1 11.4 3.1 13.2 8.6 2.2 6.5-1.3 13.1-9.3 15.8-5.3 1.8-10.3 1.1-14.9-2l3.6-8.1c3 1.8 6.6 2.5 9 1.7 2.3-.8 3.6-2.7 3.1-4.3s-2.4-2.2-5.4-2.7z"/><path d="m308 257.7 8.5-4.6 9.5 17.7c3.3 6.1 6.9 8.2 11.4 5.8s4.7-6.6 1.6-12.3l-9.7-18.1 8.5-4.6 8.4 15.6c3.4 6.3 5.4 11.1 4 16.9-1.1 4.4-3.9 7.6-8.6 10.1-8.2 4.4-15.4 3-21-4.2-1.9-2.5-2.7-4.2-4.2-7z"/></g><path d="m57.3 270.9-27.8 32.2c13.2 11.5 27.6 22 43.2 31.3 45.8 27.3 96 40.8 145.7 41.7 69.3 1.3 137.7-21.9 192.2-66.2l-17.6-21.6c.1 0 .1-.1.2-.1 3.1-2.6 3.4-7.3.8-10.4-2.6-3-7.2-3.4-10.3-.9-46.7 37.9-105.4 57.7-164.7 56.6-42.5-.8-85.4-12.3-124.5-35.7-13.4-7.9-25.8-17-37.2-26.9" fill="#c12126"/><path d="m393.1 288.3c-47.8 38.8-107.8 59.1-168.6 58-71-1.3-141.2 22.4-197 67.8l27.6 33.8c47.8-38.8 107.8-59.1 168.6-58 71 1.3 141.2-22.4 197-67.8 3.2-2.5 3.7-7.1 1.2-10.3l-27.8-34c2.6 3.1 2.3 7.7-.8 10.4-.1.1-.1.1-.2.1" fill="#ed2024"/><path d="m21.4 190.8v-160.5h32.6v130.7h56.6v29.8z" fill="#fff"/><path d="m205.9 193.1c-45.9 0-81.6-36.9-81.6-82.5 0-45.2 36.2-82.3 81.6-82.3 25.7 0 45.9 10.3 61.4 28.4l-24.3 21.1c-10.1-10.5-22.5-18.1-37.4-18.1-27.3 0-48.4 22.2-48.4 50.9 0 29.1 21.1 51.1 48.4 51.1 15.1 0 27.7-7.8 38.1-19l25.2 20.2c-15.3 18.2-35.4 30.2-63 30.2z" fill="#fff"/><path d="m369 193.1c-45.9 0-81.6-36.9-81.6-82.5 0-45.2 36.2-82.3 81.6-82.3 25.7 0 45.9 10.3 61.4 28.4l-24.3 21.1c-10.1-10.5-22.5-18.1-37.4-18.1-27.3 0-48.4 22.2-48.4 50.9 0 29.1 21.1 51.1 48.4 51.1 15.1 0 27.7-7.8 38.1-19l25.2 20.2c-15.4 18.2-35.5 30.2-63 30.2z" fill="#fff"/></svg>