<!-- Generator: Adobe Illustrator 21.1.0, SVG Export Plug-In  -->
<svg version="1.1"
	 xmlns="http://www.w3.org/2000/svg" xmlns:xlink="http://www.w3.org/1999/xlink" xmlns:a="http://ns.adobe.com/AdobeSVGViewerExtensions/3.0/"
	 x="0px" y="0px" width="456px" height="456px" viewBox="0 0 456 456" style="enable-background:new 0 0 456 456;"
	 xml:space="preserve">
<style type="text/css">
	.st0{fill:none;}
	.st1{fill:#FFFFFF;}
	.st2{fill:#C12126;}
	.st3{fill:#ED2024;}
</style>
<defs>
</defs>
<g>
	<rect class="st0" width="456" height="456"/>
	<g>
		<path class="st1" d="M123.3,232l8.3,5.4l-19.7,30.5c-2.8,4.3-5.3,7.4-9,8.8c-3.5,1.3-7.4,0.8-11.1-1.6c-4.6-3-7.6-7.9-8.2-14.3
			l9.6-1.7c0.6,3.5,1.4,6.2,3.7,7.7c1.9,1.2,3.7,0.1,5.7-3L123.3,232z"/>
		<path class="st1" d="M132.3,252.8l8.7,4.2l-16.6,34.7l-8.7-4.2L132.3,252.8z M146.7,247.8c-1,3.9-5.2,5.7-8.6,4
			c-3.2-1.5-4.2-5.5-2.7-8.7c1.4-2.9,4.9-4,7.9-2.7C146.1,241.7,147.5,244.9,146.7,247.8z"/>
		<path class="st1" d="M148,260.6l9.2,2.9l-6,19.1c-2.1,6.6-1.1,10.7,3.8,12.2c4.9,1.5,8-1.2,9.9-7.4l6.2-19.6l9.2,2.9l-5.3,16.9
			c-2.1,6.8-4.1,11.6-9.3,14.7c-3.9,2.3-8.2,2.5-13.3,0.9c-8.8-2.8-12.9-9-11.6-18c0.5-3.1,1.1-4.8,2.1-7.9L148,260.6z"/>
		<path class="st1" d="M222.3,261.6l9.9,0.2l-0.8,36.3c-0.1,5.1-0.6,9.1-3,12.3c-2.3,3-5.9,4.6-10.2,4.5c-5.5-0.1-10.6-2.8-14.5-7.8
			l7.2-6.5c2.3,2.7,4.5,4.6,7.2,4.6c2.2,0,3.2-1.8,3.3-5.6L222.3,261.6z"/>
		<path class="st1" d="M250.5,262.8c1.1,4.1-2,8-6.2,7.9c-1.7-0.1-3.2-1-4.2-2.3c-3.7-4.5-0.8-9.5,3.6-10.2
			C246.7,257.8,249.6,259.8,250.5,262.8z M240.8,274.5l9.6-1.1l4.2,38.2l-9.6,1.1L240.8,274.5z"/>
		<path class="st1" d="M256.7,258.1l9.4-1.9L269,270l5.6-1.2l1.7,8.1l-5.6,1.2l6.1,29.6l-9.4,1.9l-6.1-29.6l-4.8,1l-1.7-8.1l4.8-1
			L256.7,258.1z"/>
		<path class="st1" d="M293,286c-6.8-1-11-3.6-12.5-8.2c-1.9-5.7,1.3-12.1,8.3-14.5c4.7-1.6,9.8-0.9,14,2l-3.7,7.6
			c-2.7-1.4-5.2-2-7.4-1.2c-1.9,0.6-3,1.9-2.6,3.3c0.5,1.4,2,1.6,4.3,1.9l3.9,0.6c7.1,1.1,11.4,3.1,13.2,8.6
			c2.2,6.5-1.3,13.1-9.3,15.8c-5.3,1.8-10.3,1.1-14.9-2l3.6-8.1c3,1.8,6.6,2.5,9,1.7c2.3-0.8,3.6-2.7,3.1-4.3
			c-0.5-1.6-2.4-2.2-5.4-2.7L293,286z"/>
		<path class="st1" d="M308,257.7l8.5-4.6l9.5,17.7c3.3,6.1,6.9,8.2,11.4,5.8c4.5-2.4,4.7-6.6,1.6-12.3l-9.7-18.1l8.5-4.6l8.4,15.6
			c3.4,6.3,5.4,11.1,4,16.9c-1.1,4.4-3.9,7.6-8.6,10.1c-8.2,4.4-15.4,3-21-4.2c-1.9-2.5-2.7-4.2-4.2-7L308,257.7z"/>
	</g>
	<g>
		<g>
			<path class="st2" d="M57.3,270.9l-27.8,32.2c13.2,11.5,27.6,22,43.2,31.3c45.8,27.3,96,40.8,145.7,41.7
				c69.3,1.3,137.7-21.9,192.2-66.2l-17.6-21.6c0.1,0,0.1-0.1,0.2-0.1c3.1-2.6,3.4-7.3,0.8-10.4c-2.6-3-7.2-3.4-10.3-0.9l0,0
				c-46.7,37.9-105.4,57.7-164.7,56.6c-42.5-0.8-85.4-12.3-124.5-35.7C81.1,289.9,68.7,280.8,57.3,270.9"/>
		</g>
		<g>
			<path class="st3" d="M393.1,288.3c-47.8,38.8-107.8,59.1-168.6,58l0,0c-71-1.3-141.2,22.4-197,67.8l27.6,33.8
				c47.8-38.8,107.8-59.1,168.6-58l0,0c71,1.3,141.2-22.4,197-67.8l0,0c3.2-2.5,3.7-7.1,1.2-10.3l-27.8-34c2.6,3.1,2.3,7.7-0.8,10.4
				C393.2,288.3,393.2,288.3,393.1,288.3"/>
		</g>
	</g>
	<path class="st1" d="M21.4,190.8V30.3h32.6V161h56.6v29.8H21.4z"/>
	<path class="st1" d="M205.9,193.1c-45.9,0-81.6-36.9-81.6-82.5c0-45.2,36.2-82.3,81.6-82.3c25.7,0,45.9,10.3,61.4,28.4l-24.3,21.1
		c-10.1-10.5-22.5-18.1-37.4-18.1c-27.3,0-48.4,22.2-48.4,50.9c0,29.1,21.1,51.1,48.4,51.1c15.1,0,27.7-7.8,38.1-19l25.2,20.2
		C253.6,181.1,233.5,193.1,205.9,193.1z"/>
	<path class="st1" d="M369,193.1c-45.9,0-81.6-36.9-81.6-82.5c0-45.2,36.2-82.3,81.6-82.3c25.7,0,45.9,10.3,61.4,28.4l-24.3,21.1
		c-10.1-10.5-22.5-18.1-37.4-18.1c-27.3,0-48.4,22.2-48.4,50.9c0,29.1,21.1,51.1,48.4,51.1c15.1,0,27.7-7.8,38.1-19l25.2,20.2
		C416.6,181.1,396.5,193.1,369,193.1z"/>
</g>
</svg>
